<svg width="19" height="17" viewBox="0 0 19 17" fill="none" xmlns="http://www.w3.org/2000/svg">
<path d="M12.833 6.766C13.844 6.766 14.666 5.944 14.666 4.933C14.666 3.922 13.844 3.1 12.833 3.1C11.822 3.1 11 3.922 11 4.933C11 5.944 11.822 6.766 12.833 6.766ZM12.833 4.1C13.292 4.1 13.666 4.474 13.666 4.933C13.666 5.392 13.292 5.766 12.833 5.766C12.374 5.766 12 5.393 12 4.933C12 4.473 12.374 4.1 12.833 4.1Z" fill="black"/>
<path d="M16.357 0.326H2.661V0.327C1.588 0.367 0.625 1.422 0.625 2.578V14.42C0.625 15.566 1.639 16.269 2.661 16.322L16.965 16.325C17.585 16.325 18.625 16.078 18.625 14.42V2.579C18.625 1.442 17.502 0.326 16.357 0.326ZM2.723 1.326H16.357C16.95 1.326 17.625 1.993 17.625 2.578V11.35L14.246 8.558L11.63 10.772L8.746 7.632L4.645 10.485C3.148 11.527 2.209 12.182 1.624 12.617V2.579C1.625 1.958 2.179 1.326 2.723 1.326ZM16.965 15.326H2.786C2.223 15.326 1.625 15.009 1.625 14.421V13.697C1.646 13.685 1.662 13.681 1.684 13.668L1.677 13.661C2.209 13.276 5.897 10.707 8.587 8.838L11.536 12.05L14.254 9.749L17.625 12.533V14.421C17.625 15.258 17.326 15.326 16.965 15.326Z" fill="black"/>
</svg>
